<svg fill="none" height="12" viewBox="0 0 16 12" width="16" xmlns="http://www.w3.org/2000/svg"><path d="m14.5 0h-12.99999c-.827156 0-1.50001.672853-1.50001 1.50001v8.99999c0 .8271.672854 1.5 1.50001 1.5h12.99999c.8271 0 1.5-.6729 1.5-1.5v-8.99999c0-.827157-.6729-1.50001-1.5-1.50001zm0 .999994c.0679 0 .1325.014096.1916.038706l-6.6916 5.79968-6.69167-5.79968c.05909-.02458.12371-.038706.19165-.038706zm0 10.000006h-12.99999c-.27587 0-.500014-.2241-.500014-.5v-8.40479l6.672364 5.78271c.09425.08152.21094.12207.32764.12207s.23339-.04051.32764-.12207l6.67236-5.78271v8.40479c0 .2759-.2241.5-.5.5z" fill="#757575"/></svg>